<?xml version="1.0" encoding="UTF-8" standalone="no"?>
<!-- Created with Inkscape (http://www.inkscape.org/) -->

<svg
   version="1.1"
   id="svg3935"
   width="800"
   height="800"
   viewBox="0 0 800 800"
   sodipodi:docname="splash-sea-wave-publicdomainvectors.org.svg"
   inkscape:version="1.2 (dc2aedaf03, 2022-05-15)"
   xmlns:inkscape="http://www.inkscape.org/namespaces/inkscape"
   xmlns:sodipodi="http://sodipodi.sourceforge.net/DTD/sodipodi-0.dtd"
   xmlns="http://www.w3.org/2000/svg"
   xmlns:svg="http://www.w3.org/2000/svg">
  <defs
     id="defs3939">
    <clipPath
       clipPathUnits="userSpaceOnUse"
       id="clipPath3953">
      <path
         d="M 0,600 H 600 V 0 H 0 Z"
         id="path3951" />
    </clipPath>
  </defs>
  <sodipodi:namedview
     id="namedview3937"
     pagecolor="#ffffff"
     bordercolor="#000000"
     borderopacity="0.25"
     inkscape:showpageshadow="2"
     inkscape:pageopacity="0.0"
     inkscape:pagecheckerboard="0"
     inkscape:deskcolor="#d1d1d1"
     showgrid="false"
     inkscape:zoom="1.04625"
     inkscape:cx="399.5221"
     inkscape:cy="400.4779"
     inkscape:window-width="1920"
     inkscape:window-height="1017"
     inkscape:window-x="-8"
     inkscape:window-y="-8"
     inkscape:window-maximized="1"
     inkscape:current-layer="g3943">
    <inkscape:page
       x="0"
       y="0"
       id="page3941"
       width="800"
       height="800" />
  </sodipodi:namedview>
  <g
     id="g3943"
     inkscape:groupmode="layer"
     inkscape:label="Page 1"
     transform="matrix(1.3333333,0,0,-1.3333333,0,800)">
    <path
       d="M 0,0 H 600 V 600 H 0 Z"
       style="fill:#7dcce3;fill-opacity:1;fill-rule:nonzero;stroke:none"
       id="path3945" />
    <g
       id="g3947">
      <g
         id="g3949"
         clip-path="url(#clipPath3953)">
        <g
           id="g3955"
           transform="translate(0,151.3701)">
          <path
             d="m 0,0 c 74.407,1.786 211.513,3.054 254.359,50.601 65.019,72.15 19.732,240.602 -129.627,218.061 C 480.269,417.688 374.203,-1.728 600.075,0 V -151.445 H 0 Z"
             style="fill:#4ba5ce;fill-opacity:1;fill-rule:evenodd;stroke:none"
             id="path3957" />
        </g>
        <g
           id="g3959"
           transform="translate(283.0254,276.1602)">
          <path
             d="m 0,0 c 2.978,54.246 -24.015,113.573 -80.089,136.322 l 17,36.382 C 178.98,211.591 114.23,-126.342 317.05,-124.79 225.208,-153.058 159.298,-64.108 74.196,-85.115 78.84,-22.721 68.277,22.059 0.017,-0.005 Z"
             style="fill:#3c8bb4;fill-opacity:1;fill-rule:evenodd;stroke:none"
             id="path3961" />
        </g>
        <g
           id="g3963"
           transform="translate(522.8145,172.5195)">
          <path
             d="m 0,0 c -99.194,72.104 -108.298,307.129 -284.489,303.134 -1.732,4.622 -6.19,7.913 -11.416,7.913 -3.803,0 -7.198,-1.74 -9.433,-4.469 -3.24,4.734 -8.682,7.84 -14.852,7.84 -6.424,0 -12.06,-3.369 -15.243,-8.435 -3.226,5.511 -9.207,9.212 -16.052,9.212 -8.003,0 -14.823,-5.056 -17.444,-12.149 -2.046,1.29 -4.467,2.036 -7.063,2.036 -2.33,0 -4.52,-0.602 -6.423,-1.656 -4.081,4.068 -9.709,6.584 -15.927,6.584 -11.797,0 -21.476,-9.055 -22.475,-20.592 -1.778,0.408 -3.63,0.623 -5.532,0.623 -13.525,0 -24.503,-10.899 -24.633,-24.393 -0.26,0.01 -0.519,0.017 -0.781,0.017 -11.601,0 -21.005,-9.405 -21.005,-21.006 0,-2.722 0.518,-5.323 1.461,-7.71 -6.792,-4.205 -11.316,-11.722 -11.316,-20.297 0,-6.159 2.335,-11.773 6.166,-16.006 -2.98,-3.727 -4.765,-8.453 -4.765,-13.596 0,-6.337 2.706,-12.04 7.025,-16.021 -1.42,-3.732 -2.199,-7.779 -2.199,-12.008 0,-18.653 15.12,-33.775 33.773,-33.775 1.21,0 2.404,0.064 3.581,0.188 -0.349,-1.827 -0.533,-3.712 -0.533,-5.64 0,-16.542 13.41,-29.953 29.952,-29.953 8.661,0 16.461,3.679 21.93,9.555 4.576,-5.46 11.445,-8.934 19.128,-8.934 13.776,0 24.945,11.169 24.945,24.945 0,0.391 -0.009,0.78 -0.027,1.165 8.49,0.462 15.511,6.443 17.54,14.417 0.83,-0.145 1.685,-0.221 2.557,-0.221 6.47,0 11.968,4.156 13.971,9.944 2.285,-1.735 5.135,-2.766 8.225,-2.766 6.437,0 11.828,4.467 13.249,10.47 1.15,-0.48 2.412,-0.745 3.738,-0.745 3.066,0 5.801,1.42 7.583,3.638 2.612,-3.32 6.665,-5.452 11.218,-5.452 6.829,0 12.537,4.799 13.933,11.21 1.648,-1.334 3.749,-2.134 6.034,-2.134 3.941,0 7.326,2.377 8.804,5.775 1.659,-3.419 5.164,-5.775 9.219,-5.775 3.907,0 7.304,2.188 9.031,5.406 4.325,-1.25 8.583,-2.734 12.779,-4.426 -0.101,-0.578 -0.155,-1.175 -0.155,-1.782 0,-5.598 4.538,-10.137 10.136,-10.137 3.041,0 5.769,1.34 7.628,3.461 4.915,-2.732 9.749,-5.724 14.512,-8.932 -0.079,-0.483 -0.121,-0.978 -0.121,-1.484 0,-5.013 4.064,-9.076 9.077,-9.076 1.523,0 2.96,0.376 4.219,1.039 10.756,-8.28 21.187,-17.502 31.412,-27.119 -3.143,0.219 -6.395,0.166 -9.766,-0.19 -1.652,3.133 -4.939,5.269 -8.726,5.269 -2.588,0 -4.941,-0.997 -6.7,-2.627 -3.212,3.371 -7.743,5.474 -12.77,5.474 -9.738,0 -17.632,-7.895 -17.632,-17.634 0,-0.233 0.004,-0.465 0.013,-0.696 -4.077,-1.176 -7.193,-4.617 -7.901,-8.872 -2.317,0.985 -4.865,1.529 -7.543,1.529 -10.67,0 -19.319,-8.65 -19.319,-19.32 0,-8.864 5.969,-16.333 14.109,-18.609 -1.867,-2.755 -2.958,-6.079 -2.958,-9.658 0,-9.525 7.721,-17.245 17.244,-17.245 6.053,0 11.376,3.119 14.452,7.834 1.199,-4.942 5.653,-8.613 10.962,-8.613 5.935,0 10.799,4.583 11.248,10.403 0.934,-0.19 1.898,-0.287 2.885,-0.287 8.022,0 14.523,6.502 14.523,14.521 0,1.781 -0.321,3.486 -0.908,5.063 4.395,2.71 8.766,4.495 13.114,5.526 1.601,-3.929 5.46,-6.699 9.967,-6.699 4.502,0 8.357,2.765 9.963,6.689 20.92,-4.466 41.166,-21.055 60.475,-30.489 C -29.97,12.625 -15.315,4.343 0,0"
             style="fill:#e5f6fa;fill-opacity:1;fill-rule:evenodd;stroke:none"
             id="path3965" />
        </g>
        <g
           id="g3967"
           transform="translate(106.5381,263.1045)">
          <path
             d="m 0,0 c 2.14,-0.486 4.367,-0.744 6.653,-0.744 8.661,0 16.462,3.679 21.93,9.555 4.576,-5.46 11.446,-8.934 19.128,-8.934 13.776,0 24.946,11.169 24.946,24.945 0,0.391 -0.01,0.78 -0.028,1.165 8.49,0.462 15.511,6.443 17.54,14.417 0.83,-0.145 1.685,-0.221 2.557,-0.221 6.47,0 11.968,4.156 13.971,9.944 2.285,-1.735 5.135,-2.766 8.226,-2.766 6.436,0 11.827,4.467 13.248,10.47 1.151,-0.48 2.412,-0.745 3.738,-0.745 3.067,0 5.801,1.42 7.583,3.638 2.612,-3.32 6.666,-5.452 11.218,-5.452 6.829,0 12.537,4.799 13.933,11.21 1.648,-1.334 3.749,-2.134 6.035,-2.134 3.94,0 7.325,2.377 8.803,5.775 1.659,-3.419 5.164,-5.775 9.22,-5.775 3.906,0 7.303,2.188 9.03,5.406 4.326,-1.25 8.583,-2.733 12.78,-4.426 -0.102,-0.578 -0.156,-1.175 -0.156,-1.782 0,-5.598 4.538,-10.137 10.136,-10.137 3.041,0 5.77,1.34 7.628,3.461 4.915,-2.732 9.749,-5.724 14.513,-8.932 -0.079,-0.483 -0.121,-0.978 -0.121,-1.484 0,-5.013 4.063,-9.076 9.076,-9.076 1.523,0 2.96,0.376 4.22,1.039 10.755,-8.28 21.186,-17.502 31.412,-27.119 -3.144,0.219 -6.396,0.166 -9.767,-0.19 -1.651,3.133 -4.938,5.269 -8.725,5.269 -2.588,0 -4.942,-0.997 -6.701,-2.627 -3.212,3.371 -7.743,5.474 -12.769,5.474 -9.739,0 -17.633,-7.895 -17.633,-17.634 0,-0.233 0.004,-0.465 0.014,-0.695 -4.078,-1.177 -7.194,-4.618 -7.902,-8.872 -2.317,0.984 -4.865,1.528 -7.543,1.528 -10.67,0 -19.319,-8.65 -19.319,-19.32 0,-8.864 5.97,-16.333 14.109,-18.609 -1.867,-2.755 -2.958,-6.079 -2.958,-9.658 0,-9.525 7.721,-17.245 17.244,-17.245 6.053,0 11.376,3.119 14.453,7.834 1.198,-4.942 5.652,-8.613 10.962,-8.613 5.934,0 10.798,4.583 11.248,10.403 0.933,-0.19 1.897,-0.287 2.884,-0.287 8.022,0 14.524,6.502 14.524,14.521 0,1.781 -0.322,3.487 -0.908,5.063 4.394,2.71 8.765,4.495 13.113,5.526 1.601,-3.929 5.461,-6.699 9.968,-6.699 4.502,0 8.356,2.765 9.963,6.689 20.92,-4.466 41.166,-21.055 60.474,-30.489 9.564,-7.078 19.258,-13.117 29.193,-17.644 C 362.594,-59.67 340.671,-45.485 313.899,0.369 267.829,79.451 215.007,114.294 121.185,99.648 22.057,70.778 49.079,9.33 0,0"
             style="fill:#cee9ed;fill-opacity:1;fill-rule:evenodd;stroke:none"
             id="path3969" />
        </g>
        <g
           id="g3971"
           transform="translate(86.3594,371.5352)">
          <path
             d="m 0,0 c 12.855,0 23.339,10.484 23.339,23.339 0,12.855 -10.484,23.34 -23.339,23.34 -12.855,0 -23.339,-10.485 -23.339,-23.34 C -23.339,10.484 -12.855,0 0,0"
             style="fill:#ffffff;fill-opacity:1;fill-rule:evenodd;stroke:none"
             id="path3973" />
        </g>
        <g
           id="g3975"
           transform="translate(113.8477,395.3936)">
          <path
             d="m 0,0 c 11.712,0 21.264,9.552 21.264,21.264 0,11.712 -9.552,21.265 -21.264,21.265 -11.712,0 -21.265,-9.553 -21.265,-21.265 C -21.265,9.552 -11.712,0 0,0"
             style="fill:#ffffff;fill-opacity:1;fill-rule:evenodd;stroke:none"
             id="path3977" />
        </g>
        <g
           id="g3979"
           transform="translate(141.855,408.3589)">
          <path
             d="M 0,0 C 12.57,0 22.821,10.251 22.821,22.821 22.821,35.391 12.57,45.642 0,45.642 -12.569,45.642 -22.821,35.391 -22.821,22.821 -22.821,10.251 -12.569,0 0,0"
             style="fill:#ffffff;fill-opacity:1;fill-rule:evenodd;stroke:none"
             id="path3981" />
        </g>
        <g
           id="g3983"
           transform="translate(164.0811,434.9634)">
          <path
             d="m 0,0 c 9.956,0 18.077,8.12 18.077,18.076 0,9.957 -8.121,18.077 -18.077,18.077 -9.956,0 -18.077,-8.12 -18.077,-18.077 C -18.077,8.12 -9.956,0 0,0"
             style="fill:#ffffff;fill-opacity:1;fill-rule:evenodd;stroke:none"
             id="path3985" />
        </g>
        <g
           id="g3987"
           transform="translate(233.1382,414.583)">
          <path
             d="m 0,0 c 10.284,0 18.671,8.388 18.671,18.672 0,10.284 -8.387,18.671 -18.671,18.671 -10.284,0 -18.672,-8.387 -18.672,-18.671 C -18.672,8.388 -10.284,0 0,0"
             style="fill:#ffffff;fill-opacity:1;fill-rule:evenodd;stroke:none"
             id="path3989" />
        </g>
        <g
           id="g3991"
           transform="translate(218.8745,384.5015)">
          <path
             d="M 0,0 C 13.284,0 24.117,10.834 24.117,24.118 24.117,37.4 13.284,48.235 0,48.235 -13.283,48.235 -24.118,37.4 -24.118,24.118 -24.118,10.834 -13.283,0 0,0"
             style="fill:#ffffff;fill-opacity:1;fill-rule:evenodd;stroke:none"
             id="path3993" />
        </g>
        <g
           id="g3995"
           transform="translate(302.8965,403.1724)">
          <path
             d="M 0,0 C 8.427,0 15.3,6.873 15.3,15.3 15.3,23.728 8.427,30.601 0,30.601 -8.428,30.601 -15.299,23.728 -15.299,15.3 -15.299,6.873 -8.428,0 0,0"
             style="fill:#ffffff;fill-opacity:1;fill-rule:evenodd;stroke:none"
             id="path3997" />
        </g>
        <g
           id="g3999"
           transform="translate(290.707,377.7588)">
          <path
             d="m 0,0 c 11.427,0 20.746,9.32 20.746,20.746 0,11.426 -9.319,20.746 -20.746,20.746 -11.426,0 -20.746,-9.32 -20.746,-20.746 C -20.746,9.32 -11.426,0 0,0"
             style="fill:#ffffff;fill-opacity:1;fill-rule:evenodd;stroke:none"
             id="path4001" />
        </g>
        <g
           id="g4003"
           transform="translate(365.9121,358.0503)">
          <path
             d="m 0,0 c 9.142,0 16.598,7.456 16.598,16.596 0,9.142 -7.456,16.598 -16.598,16.598 -9.141,0 -16.597,-7.456 -16.597,-16.598 C -16.597,7.456 -9.141,0 0,0"
             style="fill:#ffffff;fill-opacity:1;fill-rule:evenodd;stroke:none"
             id="path4005" />
        </g>
        <g
           id="g4007"
           transform="translate(173.8818,429.106)">
          <path
             d="m 0,0 c 7.499,0 13.614,6.116 13.614,13.615 0,7.498 -6.115,13.614 -13.614,13.614 -7.499,0 -13.615,-6.116 -13.615,-13.614 C -13.615,6.116 -7.499,0 0,0"
             style="fill:#e5f6fa;fill-opacity:1;fill-rule:evenodd;stroke:none"
             id="path4009" />
        </g>
        <g
           id="g4011"
           transform="translate(159.0996,403.9517)">
          <path
             d="M 0,0 C 10.355,0 18.801,8.446 18.801,18.8 18.801,29.156 10.355,37.602 0,37.602 -10.355,37.602 -18.801,29.156 -18.801,18.8 -18.801,8.446 -10.355,0 0,0"
             style="fill:#e5f6fa;fill-opacity:1;fill-rule:evenodd;stroke:none"
             id="path4013" />
        </g>
        <g
           id="g4015"
           transform="translate(127.4619,382.9453)">
          <path
             d="M 0,0 C 12.784,0 23.21,10.426 23.21,23.211 23.21,35.994 12.784,46.42 0,46.42 -12.783,46.42 -23.209,35.994 -23.209,23.211 -23.209,10.426 -12.783,0 0,0"
             style="fill:#e5f6fa;fill-opacity:1;fill-rule:evenodd;stroke:none"
             id="path4017" />
        </g>
        <g
           id="g4019"
           transform="translate(95.4321,369.9404)">
          <path
             d="M 0,0 C 9.57,0 17.374,7.804 17.374,17.374 17.374,26.945 9.57,34.75 0,34.75 -9.57,34.75 -17.376,26.945 -17.376,17.374 -17.376,7.804 -9.57,0 0,0"
             style="fill:#e5f6fa;fill-opacity:1;fill-rule:evenodd;stroke:none"
             id="path4021" />
        </g>
        <g
           id="g4023"
           transform="translate(228.0811,376.2031)">
          <path
             d="m 0,0 c 11.069,0 20.098,9.028 20.098,20.098 0,11.069 -9.029,20.098 -20.098,20.098 -11.07,0 -20.098,-9.029 -20.098,-20.098 C -20.098,9.028 -11.07,0 0,0"
             style="fill:#e5f6fa;fill-opacity:1;fill-rule:evenodd;stroke:none"
             id="path4025" />
        </g>
        <g
           id="g4027"
           transform="translate(238.3237,407.3223)">
          <path
             d="m 0,0 c 8.57,0 15.56,6.99 15.56,15.559 0,8.57 -6.99,15.56 -15.56,15.56 -8.569,0 -15.559,-6.99 -15.559,-15.56 C -15.559,6.99 -8.569,0 0,0"
             style="fill:#e5f6fa;fill-opacity:1;fill-rule:evenodd;stroke:none"
             id="path4029" />
        </g>
        <g
           id="g4031"
           transform="translate(302.6367,373.0908)">
          <path
             d="m 0,0 c 10.285,0 18.673,8.388 18.673,18.672 0,10.284 -8.388,18.671 -18.673,18.671 -10.283,0 -18.671,-8.387 -18.671,-18.671 C -18.671,8.388 -10.283,0 0,0"
             style="fill:#e5f6fa;fill-opacity:1;fill-rule:evenodd;stroke:none"
             id="path4033" />
        </g>
        <g
           id="g4035"
           transform="translate(311.4531,399.2832)">
          <path
             d="M 0,0 C 6.428,0 11.67,5.242 11.67,11.67 11.67,18.097 6.428,23.339 0,23.339 -6.426,23.339 -11.669,18.097 -11.669,11.67 -11.669,5.242 -6.426,0 0,0"
             style="fill:#e5f6fa;fill-opacity:1;fill-rule:evenodd;stroke:none"
             id="path4037" />
        </g>
        <g
           id="g4039"
           transform="translate(373.6914,342.4907)">
          <path
             d="M 0,0 C 10.57,0 19.191,8.621 19.191,19.19 19.191,29.76 10.57,38.381 0,38.381 -10.568,38.381 -19.189,29.76 -19.189,19.19 -19.189,8.621 -10.568,0 0,0"
             style="fill:#e5f6fa;fill-opacity:1;fill-rule:evenodd;stroke:none"
             id="path4041" />
        </g>
        <path
           d="M 0,-0.077 H 600.075 V 67.864 H 0 Z"
           style="fill:#3c8bb4;fill-opacity:1;fill-rule:evenodd;stroke:none"
           id="path4043" />
        <path
           d="M 0,-0.075 H 600.075 V 20.149 H 0 Z"
           style="fill:#30759e;fill-opacity:1;fill-rule:evenodd;stroke:none"
           id="path4045" />
      </g>
    </g>
  </g>
</svg>
